<?xml version="1.0" encoding="UTF-8"?>
<svg viewBox="0 0 50 50" xmlns="http://www.w3.org/2000/svg">
 <g transform="matrix(.23229 -1.0059 1.0059 .23229 -137.42 320.68)" stroke="#000">
  <path d="m337.54 103.07c-3.9329-5.3836-10.934-5.9273-14.326-5.6128m-25.962-17.593c-1.145-3.4323-3.3273-5.661-5.0197-7.4511m4.8366 41.125 26.118-16.026c-0.80791-15.417-12.391-17.106-25.935-17.673l-0.18301 33.7zm42.118-17.909-7.9478-31.164-13.49 13.281c3.7628 8.7306 7.0929 17.835 21.438 17.883zm-43.295-27.19c4.0275 7.1994 7.2811 10.994 21.856 9.2333m-20.722 35.98 35.258-4.2191c3.5539-2.9304 6.7124-6.3852 6.9619-13.721l-8.0389-31.391-35.316 4.1184c-6.9566 6.0305-6.3328 12.442-6.17 13.804l7.3047 31.409z" fill="#7e7e7e" stroke-width=".3"/>
  <path d="m300.73 99.561 6.4334 3.6973 3.8452-5.472-1.8487-1.6268c-7.5103-0.16505 0.357-8.6432 0.88736-1.7747l2.5142 0.96131c-1.5343-12.986-16.093-2.0493-5.472 2.81l-0.81341 1.331-4.4368-2.2184-1.1092 2.2923z" fill="#fff" stroke-width=".2"/>
  <path d="m315.44 110.58-2.9579-3.1797 1.8487-0.96128c4.3136 0.53875 8.6271-0.58708 12.941-1.9966l1.0352 1.331c-4.1106 0.80577-8.8737 2.0132-12.423 2.0705l1.9226 1.8487-2.3663 0.88734z" fill="#fff" stroke-width=".2"/>
  <path d="m327.88 74.126c-1.05 0.0058-1.5169 1.0924-0.34375 4.0938-5.9784 4.0979 9.0137 14.51 4.0625 3.4375 3.6724-2.2435-1.4089-7.5441-3.7188-7.5312zm1.3125 2.5625c0.51589-0.04701 1.2453 0.5326 1.6562 1.2812s0.32839 1.3905-0.1875 1.4375-1.2453-0.5326-1.6562-1.2812-0.32839-1.3905 0.1875-1.4375zm-0.46875 4.2188c0.56373-0.05294 1.3539 0.56168 1.7812 1.375s0.31373 1.5096-0.25 1.5625-1.3539-0.56168-1.7812-1.375-0.31373-1.5096 0.25-1.5625z" fill="#fff" stroke-width=".2"/>
  <path d="m317.38 67.376c-0.83883 0.0087-1.7819 0.0664-2.75 0.21875-3.8723 0.60939-7 2.1857-7 3.5312s3.1277 1.9531 7 1.3438 7.0312-2.1857 7.0312-3.5312c0-1.0092-1.7648-1.5887-4.2812-1.5625zm0.125 1.1562c0.72198-0.03142 1.1875 0.06364 1.1875 0.3125 0 0.49771-1.7966 1.4064-4 2s-4 0.65396-4 0.15625 1.7966-1.3752 4-1.9688c1.1017-0.2968 2.0905-0.46858 2.8125-0.5z" fill="#fff" stroke-linejoin="round" stroke-width=".2"/>
  <path transform="matrix(.26772 0 0 .26772 363.14 -94.102)" d="m-263.85 662.9c0 1.7924-0.58741 3.2455-1.312 3.2455s-1.312-1.4531-1.312-3.2455 0.58741-3.2455 1.312-3.2455 1.312 1.4531 1.312 3.2455z" fill="#fff" stroke-linejoin="round" stroke-width=".74706"/>
  <path d="m293.75819,82.96966c-.59282.04134-1.19331,1.55977-1.09375,1.59375l.25,6.0625c1.94474,17.15972 5.53617-.36201.71875-2.4375l-.0625-2h.375l.0312.75h.78125c-.0911-3.14949-.53892-4.00091-1-3.96875zm.5625,7.875c.0561-.06474.11475-.0066.1875.1875 .19399.51748.375,1.83994.375,2.9375s-.18101,1.54873-.375,1.03125-.34375-1.80869-.34375-2.90625c0-.68598.0628-1.1421.15625-1.25z" fill="#fff" stroke-width=".2"/>
 </g>
</svg>
